# xmcd
#
# Track frame offsets:
#	150
#	19613
#	37566
#	57086
#	72089
#	91017
#	109117
#	127999
#	148419
#	166128
#	184720
#	200606
#	215121
#	236802
#	255538
#
# Disc length: 3656 seconds
#
# Revision: 1
# Processed by: cddbd v1.5.2PL0 Copyright (c) Steve Scherf et al.
# Submitted via: audiograbber 1.83.01
#
DISCID=cb0e460f
DTITLE=Chartbuster Time Line Series 2002 Vol1 - 80159
DYEAR=2006
DGENRE=Country
TTITLE0=SHANIA TWAIN - I'M GONNA GETCHA GOOD!
TTITLE1=DIXIE CHICKS - LONG TIME GONE
TTITLE2=SARA EVANS - I KEEP LOOKING
TTITLE3=CHELY WRIGHT - JEZEBEL
TTITLE4=KELLIE COFFEY - WHEN YOU LIE NEXT TO ME
TTITLE5=CYNDI THOMSON - I'M GONE
TTITLE6=SHEDAISY - GET OVER YOURSELF
TTITLE7=MARTINA MCBRIDE - WHERE WOULD YOU BE
TTITLE8=LEE ANN WOMACK - SOMETHING WORTH LEAVING BEHIND
TTITLE9=REBECCA LYNN HOWARD - FORGIVE
TTITLE10=ALISON KRAUSS and UNION STATION - LET ME TOUCH YOU FOR A WHILE
TTITLE11=TRICK PONY - ON A MISSION
TTITLE12=CAROLYN DAWN JOHNSON - I DON'T WANT YOU TO GO
TTITLE13=DOLLY PARTON - DAGGER THROUGH THE HEART
TTITLE14=MAROON 5 - BEAUTIFUL GOODBYE
EXTD=
EXTT0=
EXTT1=
EXTT2=
EXTT3=
EXTT4=
EXTT5=
EXTT6=
EXTT7=
EXTT8=
EXTT9=
EXTT10=
EXTT11=
EXTT12=
EXTT13=
EXTT14=
PLAYORDER=
